<?xml version="1.0" encoding="iso-8859-1"?>
<!-- Generator: Adobe Illustrator 19.0.0, SVG Export Plug-In . SVG Version: 6.00 Build 0)  -->
<svg version="1.1" id="Layer_1" xmlns="http://www.w3.org/2000/svg" xmlns:xlink="http://www.w3.org/1999/xlink" x="0px" y="0px"
	 viewBox="0 0 512.002 512.002" style="enable-background:new 0 0 512.002 512.002;" xml:space="preserve">
<g>
	<g>
		<g>
			<rect x="155.968" y="304.095" width="32.01" height="15.698"/>
			<path d="M92.105,103.877h15.698c0-30.973,25.198-56.17,56.17-56.17V32.009C124.345,32.009,92.105,64.25,92.105,103.877z"/>
			<rect x="92.108" y="119.882" width="15.698" height="24.007"/>
			<path d="M252.153,175.899h15.698c0-30.973,25.198-56.17,56.17-56.17v-15.698C284.393,104.031,252.153,136.271,252.153,175.899z"
				/>
			<rect x="252.157" y="191.905" width="15.698" height="24.007"/>
			<path d="M183.979,328.098h-24.007c-10.947,0-19.853,8.906-19.853,19.853c0,10.947,8.906,19.853,19.853,19.853h24.007
				c10.947,0,19.853-8.906,19.853-19.853C203.832,337.004,194.926,328.098,183.979,328.098z M183.979,352.105h-24.007
				c-2.291,0-4.155-1.864-4.155-4.155c0-2.291,1.864-4.155,4.155-4.155h24.007c2.291,0,4.155,1.864,4.155,4.155
				C188.134,350.242,186.27,352.105,183.979,352.105z"/>
			<rect x="164.131" y="375.961" width="15.698" height="136.041"/>
			<rect x="316.017" y="368.112" width="32.01" height="15.698"/>
			<path d="M344.028,392.117h-24.007c-10.947,0-19.853,8.906-19.853,19.853c0,10.947,8.906,19.853,19.853,19.853h24.007
				c10.947,0,19.853-8.906,19.853-19.853C363.881,401.023,354.975,392.117,344.028,392.117z M344.028,416.125h-24.007
				c-2.29,0-4.155-1.864-4.155-4.155s1.864-4.155,4.155-4.155h24.007c2.29,0,4.155,1.864,4.155,4.155
				S346.319,416.125,344.028,416.125z"/>
			<rect x="324.169" y="439.979" width="15.698" height="72.021"/>
			<path d="M336.026,72.021c-19.969,0-38.775,5.078-55.194,14.009c-5.389-22.728-17.85-43.363-35.699-58.8
				C224.831,9.67,198.85,0,171.976,0C110.285,0,60.095,50.189,60.095,111.88v72.021c0,61.691,50.189,111.88,111.88,111.88
				c19.181,0,37.872-4.884,54.472-14.152c15.681,45.44,58.876,78.172,109.578,78.172c63.898,0,115.882-51.984,115.882-115.882
				v-56.016C451.907,124.005,399.923,72.021,336.026,72.021z M222.244,265.901c-15.097,9.276-32.434,14.183-50.268,14.183
				c-53.035,0-96.182-43.147-96.182-96.182v-72.021c-0.001-53.036,43.146-96.183,96.182-96.183c23.104,0,45.437,8.312,62.887,23.405
				c16.771,14.505,28.002,34.337,31.816,56.012c-28.234,21.154-46.536,54.874-46.536,92.787v56.016
				C220.144,251.434,220.871,258.781,222.244,265.901z M436.209,243.92c0,55.241-44.942,100.184-100.184,100.184
				S235.841,299.162,235.841,243.92v-56.016c0-55.241,44.942-100.184,100.184-100.184s100.184,44.942,100.184,100.184V243.92z"/>
		</g>
	</g>
</g>
<g>
</g>
<g>
</g>
<g>
</g>
<g>
</g>
<g>
</g>
<g>
</g>
<g>
</g>
<g>
</g>
<g>
</g>
<g>
</g>
<g>
</g>
<g>
</g>
<g>
</g>
<g>
</g>
<g>
</g>
</svg>
