<?xml version="1.0" encoding="iso-8859-1"?>
<!-- Generator: Adobe Illustrator 19.0.0, SVG Export Plug-In . SVG Version: 6.00 Build 0)  -->
<svg version="1.1" id="Capa_1" xmlns="http://www.w3.org/2000/svg" xmlns:xlink="http://www.w3.org/1999/xlink" x="0px" y="0px"
	 viewBox="0 0 512.001 512.001" style="enable-background:new 0 0 512.001 512.001;" xml:space="preserve">
<g>
	<g>
		<path d="M344.174,0c-92.541,0-167.828,75.287-167.828,167.827c0,38.475,13.023,73.96,34.88,102.3l-26.08,26.08
			c-1.94-0.852-4.049-1.311-6.232-1.311c-4.145,0-8.041,1.614-10.971,4.545L9.226,458.157c-12.3,12.301-12.3,32.316,0,44.617
			c6.15,6.15,14.229,9.226,22.309,9.226s16.158-3.075,22.309-9.226l158.716-158.716c4.642-4.642,5.708-11.513,3.226-17.195
			l26.088-26.088c28.34,21.858,63.825,34.881,102.3,34.881c92.54,0,167.827-75.287,167.827-167.828
			C512.001,75.287,436.714,0,344.174,0z M43.237,492.167c-6.452,6.452-16.951,6.452-23.404,0c-6.452-6.452-6.452-16.951,0-23.404
			l130.975-130.975l23.404,23.404L43.237,492.167z M201.954,333.452l-17.135,17.134l-23.404-23.404l17.135-17.135
			c0.037-0.038,0.151-0.151,0.364-0.151c0.214,0,0.328,0.113,0.365,0.151l22.674,22.674
			C202.155,332.923,202.155,333.251,201.954,333.452z M205.94,315.495l-9.434-9.434l24.435-24.435
			c3.02,3.268,6.167,6.415,9.434,9.434L205.94,315.495z M344.174,320.655c-84.269,0-152.828-68.558-152.828-152.827
			S259.905,15,344.174,15s152.826,68.558,152.826,152.826C497.001,252.096,428.444,320.655,344.174,320.655z"/>
	</g>
</g>
<g>
	<g>
		<path d="M445.744,90.33c-2.516-3.29-7.221-3.918-10.514-1.401c-3.29,2.517-3.917,7.224-1.4,10.514
			c34.139,44.634,29.868,108.307-9.934,148.108c-39.802,39.802-103.474,44.071-148.107,9.933c-3.292-2.517-7.997-1.889-10.514,1.4
			c-2.517,3.29-1.89,7.998,1.4,10.514c22.87,17.492,50.146,26.088,77.341,26.088c32.951,0,65.78-12.622,90.487-37.329
			C479.6,213.061,484.432,140.911,445.744,90.33z"/>
	</g>
</g>
<g>
	<g>
		<path d="M421.673,66.257c-50.583-38.688-122.734-33.856-167.83,11.24c-45.096,45.097-49.928,117.247-11.24,167.828
			c1.477,1.931,3.707,2.944,5.962,2.944c1.589,0,3.191-0.503,4.551-1.543c3.29-2.517,3.917-7.224,1.4-10.514
			c-34.138-44.633-29.868-108.306,9.934-148.107c39.803-39.802,103.475-44.071,148.108-9.932c3.291,2.517,7.998,1.889,10.514-1.401
			C425.59,73.481,424.963,68.774,421.673,66.257z"/>
	</g>
</g>
<g>
	<g>
		<path d="M214.158,16.032H15.502c-4.142,0-7.5,3.358-7.5,7.5c0,4.142,3.358,7.5,7.5,7.5h198.656c4.142,0,7.5-3.358,7.5-7.5
			C221.658,19.391,218.3,16.032,214.158,16.032z"/>
	</g>
</g>
<g>
	<g>
		<path d="M179.337,56.115H55.585c-4.142,0-7.5,3.358-7.5,7.5c0,4.142,3.358,7.5,7.5,7.5h123.753c4.142,0,7.5-3.358,7.5-7.5
			C186.837,59.473,183.479,56.115,179.337,56.115z"/>
	</g>
</g>
<g>
	<g>
		<path d="M159.797,96.196H95.666c-4.142,0-7.5,3.358-7.5,7.5c0,4.143,3.358,7.5,7.5,7.5h64.131c4.142,0,7.5-3.357,7.5-7.5
			C167.297,99.554,163.939,96.196,159.797,96.196z"/>
	</g>
</g>
<g>
</g>
<g>
</g>
<g>
</g>
<g>
</g>
<g>
</g>
<g>
</g>
<g>
</g>
<g>
</g>
<g>
</g>
<g>
</g>
<g>
</g>
<g>
</g>
<g>
</g>
<g>
</g>
<g>
</g>
</svg>
